# xmcd
#
# Track frame offsets: 
#        150
#        14036
#        33498
#        44530
#        68365
#        86417
#        101562
#        115781
#        140696
#        152421
#        169975
#        189730
#        203288
#        215635
#
# Disc length: 3042 seconds
#
# Revision: 0
# Processed by: cddbd v1.5.2PL0 Copyright (c) Steve Scherf et al.
# Submitted via: ExactAudioCopy v0.99pb5
#
DISCID=bd0be00e
DTITLE=Steve Smith And The The Meteors - Steve Smith And The The Meteo
DTITLE=rs
DYEAR=2008
DGENRE=Blues
TTITLE0=Chili Dogs
TTITLE1=Working Two Jobs
TTITLE2=Rollin' for Roland
TTITLE3=TV Repairman
TTITLE4=LTN
TTITLE5=Same Mistake Twice
TTITLE6=Weed Killer
TTITLE7=Love's Too Much Like Work
TTITLE8=Lightning Bolt
TTITLE9=No Need to Look Further
TTITLE10=Larry II aka Bobby
TTITLE11=Perfect Health
TTITLE12=A and R BBQ
TTITLE13=Extra Sauce
EXTD=
EXTT0=
EXTT1=
EXTT2=
EXTT3=
EXTT4=
EXTT5=
EXTT6=
EXTT7=
EXTT8=
EXTT9=
EXTT10=
EXTT11=
EXTT12=
EXTT13=
PLAYORDER=
